<svg xmlns="http://www.w3.org/2000/svg" width="256" height="256" viewBox="0 0 256 256">
  <g id="Group_2914" data-name="Group 2914" transform="translate(0)">
    <g id="Group_642" data-name="Group 642" transform="translate(0 10.535)">
      <g id="Group_377" data-name="Group 377" transform="translate(0 0)">
        <path id="Path_278" data-name="Path 278" d="M0,88.411V20.164C0,8.531,8.53,0,20.164,0H44.2C76,0,101.44,20.94,101.44,54.287S76,108.575,44.2,108.575H20.164C8.53,108.575,0,100.044,0,88.411ZM45.291,73.831c11.633,0,20.163-7.446,20.163-19.544S56.924,34.744,45.291,34.744H35.984V73.831Z" transform="translate(0 2.171)" fill="#fd6e0d"/>
        <path id="Path_279" data-name="Path 279" d="M0,92.6V16.907C0,6.98,7.6,0,17.372,0c7.6,0,12.563,3.412,16.751,9l20.784,27.92A169.041,169.041,0,0,1,66.076,53.356V20.164C66.076,8.376,72.279,0,84.068,0S102.06,8.376,102.06,20.164V96.011c0,9.927-7.6,16.907-17.217,16.907-7.755,0-12.564-3.412-16.906-9L45.911,76c-3.257-4.188-6.979-9.772-9.927-14.426V92.6c0,11.943-6.2,20.319-17.993,20.319S0,104.542,0,92.6Z" transform="translate(110.457 0)" fill="#fd6e0d"/>
        <path id="Path_280" data-name="Path 280" d="M58.01,104.853,43.739,87.48c-3.413-4.187-4.808-5.893-7.755-9.927V94.615c0,10.7-7.445,18.3-17.992,18.3S0,105.318,0,94.615V18.3C0,7.6,7.444,0,17.992,0S35.984,7.6,35.984,18.3V34.745c2.792-4.034,4.342-6.05,7.755-10.393L56.149,8.532c16.441-20.94,45.6,3.567,27.918,24.2L64.213,55.994l21.405,24.2C102.525,99.269,75.226,125.947,58.01,104.853Z" transform="translate(0 122.011)" fill="#fd6e0d"/>
        <path id="Path_281" data-name="Path 281" d="M0,92.6V16.907C0,6.98,7.6,0,17.372,0c7.6,0,12.563,3.413,16.75,9l20.785,27.92A169.15,169.15,0,0,1,66.076,53.357V20.164C66.076,8.376,72.28,0,84.068,0S102.06,8.376,102.06,20.164V96.011c0,9.927-7.6,16.907-17.217,16.907-7.754,0-12.563-3.412-16.906-9L45.911,76c-3.257-4.188-6.98-9.772-9.927-14.425V92.6c0,11.943-6.2,20.319-17.992,20.319S0,104.542,0,92.6Z" transform="translate(109.503 122.011)" fill="#fd6e0d"/>
        <path id="Path_282" data-name="Path 282" d="M19.2.157c6.238.819,12.794,5.165,14.1,12.924.716,4.249-.285,9.787-2.2,16.524-1.841,6.471-3.721,12.43-7.846,16.043a13.159,13.159,0,0,1-10.443,3.107l-.153-.02a13.158,13.158,0,0,1-9.268-5.728C.353,38.44.095,32.2.01,25.47c-.088-7,.392-12.61,2.2-16.524C5.5,1.8,12.962-.683,19.2.157" transform="translate(222.467 122.064)" fill="#f11790"/>
      </g>
      <g id="Group_378" data-name="Group 378" transform="translate(217.195 222.364)">
        <path id="Path_283" data-name="Path 283" d="M12.223,5.948A6.026,6.026,0,0,1,6.112,11.9,6.027,6.027,0,0,1,0,5.948,6.027,6.027,0,0,1,6.112,0,6.027,6.027,0,0,1,12.223,5.948Zm-1.8,0a4.315,4.315,0,1,0-4.314,4.313A4.311,4.311,0,0,0,10.426,5.948ZM8.35,7.435a1.1,1.1,0,0,1,.262.638.841.841,0,0,1-.884.882.878.878,0,0,1-.718-.376L5.834,6.993H5.6V8.056a.863.863,0,0,1-.883.9.853.853,0,0,1-.881-.9V3.84a.867.867,0,0,1,.9-.9H6.5A1.957,1.957,0,0,1,8.53,4.968,1.962,1.962,0,0,1,7.746,6.6ZM5.6,5.556h.507a.591.591,0,1,0,0-1.176H5.6Z" transform="translate(0 0)" fill="#fd6e0d"/>
      </g>
    </g>
    <rect id="Rectangle_470" data-name="Rectangle 470" width="256" height="256" fill="none"/>
  </g>
</svg>
